<svg width="38" height="12" viewBox="0 0 38 12" fill="none" xmlns="http://www.w3.org/2000/svg">
<path d="M9.46484 4.52734C9.43359 4.60547 9.40234 4.67969 9.37109 4.75C9.33984 4.82031 9.31641 4.89844 9.30078 4.98438C9.24609 5.02344 9.18359 5.05469 9.11328 5.07812C9.05078 5.09375 8.98438 5.11328 8.91406 5.13672C8.84375 5.15234 8.77734 5.17578 8.71484 5.20703C8.66016 5.23047 8.61719 5.26953 8.58594 5.32422C8.5625 5.44141 8.55078 5.55078 8.55078 5.65234C8.55078 5.78516 8.57422 5.89844 8.62109 5.99219C8.59766 6.0625 8.58203 6.13672 8.57422 6.21484C8.56641 6.29297 8.5625 6.36719 8.5625 6.4375C8.5625 6.69531 8.59375 6.95312 8.65625 7.21094C8.71875 7.46094 8.75391 7.71484 8.76172 7.97266C8.76172 8.01172 8.75781 8.05469 8.75 8.10156C8.74219 8.14844 8.73828 8.19141 8.73828 8.23047C8.73828 8.39453 8.80078 8.50391 8.92578 8.55859C8.90234 8.59766 8.89062 8.63281 8.89062 8.66406C8.89062 8.72656 8.89844 8.78125 8.91406 8.82812C8.92969 8.875 8.93359 8.92578 8.92578 8.98047C8.96484 9.05859 9.00391 9.12891 9.04297 9.19141C9.08203 9.24609 9.10938 9.31641 9.125 9.40234C9.07031 9.51172 9.00391 9.61328 8.92578 9.70703C8.84766 9.79297 8.79297 9.90234 8.76172 10.0352C8.73047 10.0273 8.69531 10.0234 8.65625 10.0234C8.60156 10.0234 8.55859 10.0352 8.52734 10.0586C8.49609 10.082 8.46875 10.1094 8.44531 10.1406C8.42969 10.1797 8.41016 10.2148 8.38672 10.2461C8.36328 10.2852 8.33203 10.3125 8.29297 10.3281H8.25781C8.21875 10.3359 8.18359 10.332 8.15234 10.3164C8.12891 10.3086 8.10547 10.3047 8.08203 10.3047C8.06641 10.3047 8.03516 10.3125 7.98828 10.3281C7.92578 10.25 7.88281 10.1562 7.85938 10.0469C7.83594 9.94531 7.82422 9.84375 7.82422 9.74219C7.82422 9.63281 7.83984 9.53516 7.87109 9.44922C7.78516 9.37891 7.73047 9.27344 7.70703 9.13281C7.69141 8.99219 7.67188 8.875 7.64844 8.78125C7.58594 8.49219 7.51172 8.21094 7.42578 7.9375C7.34766 7.66406 7.30078 7.38281 7.28516 7.09375C7.27734 6.98438 7.27344 6.87891 7.27344 6.77734V6.16797C7.27344 6.06641 7.27734 5.96875 7.28516 5.875C7.28516 5.80469 7.28906 5.73828 7.29688 5.67578C7.3125 5.60547 7.32031 5.53516 7.32031 5.46484C7.32031 5.37109 7.28906 5.28125 7.22656 5.19531C6.67188 5.21875 6.14453 5.32031 5.64453 5.5C5.15234 5.67188 4.66016 5.87891 4.16797 6.12109C4.13672 6.30078 4.11719 6.47656 4.10938 6.64844C4.10156 6.82031 4.09766 6.99609 4.09766 7.17578V7.69141C4.09766 7.88672 4.10547 8.05078 4.12109 8.18359C4.16016 8.41016 4.27344 8.58594 4.46094 8.71094C4.65625 8.82812 4.85156 8.91797 5.04688 8.98047C5.03906 9.09766 5.01562 9.19922 4.97656 9.28516C4.9375 9.36328 4.88672 9.4375 4.82422 9.50781C4.76953 9.57031 4.70703 9.63281 4.63672 9.69531C4.56641 9.75781 4.49609 9.82812 4.42578 9.90625C4.36328 9.86719 4.30078 9.83984 4.23828 9.82422C4.17578 9.80859 4.10938 9.80078 4.03906 9.80078C3.96875 9.79297 3.89844 9.78516 3.82812 9.77734C3.75781 9.76953 3.6875 9.75391 3.61719 9.73047L3.35938 9.37891C3.27344 9.26172 3.17969 9.14453 3.07812 9.02734V8.92188C3.07812 8.71094 3.03906 8.50781 2.96094 8.3125C2.88281 8.11719 2.82422 7.91797 2.78516 7.71484C2.80859 7.64453 2.82422 7.57422 2.83203 7.50391C2.83984 7.43359 2.84375 7.35938 2.84375 7.28125C2.84375 7.125 2.83594 6.97266 2.82031 6.82422C2.8125 6.67578 2.81641 6.52734 2.83203 6.37891H2.77344C2.70312 6.37891 2.62891 6.39844 2.55078 6.4375C2.47266 6.46875 2.39453 6.50781 2.31641 6.55469C2.24609 6.59375 2.17578 6.63281 2.10547 6.67188C2.04297 6.70312 1.98828 6.71875 1.94141 6.71875C1.91797 6.71875 1.89453 6.71484 1.87109 6.70703C1.84766 6.69922 1.82031 6.69531 1.78906 6.69531C1.75 6.69531 1.70312 6.71094 1.64844 6.74219C1.59375 6.77344 1.53516 6.80859 1.47266 6.84766C1.40234 6.87891 1.33203 6.91016 1.26172 6.94141C1.19141 6.97266 1.12109 6.98828 1.05078 6.98828C0.941406 6.98828 0.832031 6.94141 0.722656 6.84766C0.707031 6.78516 0.703125 6.72656 0.710938 6.67188C0.710938 6.61719 0.710938 6.55859 0.710938 6.49609C0.710938 6.43359 0.699219 6.36719 0.675781 6.29688C0.730469 6.19531 0.804688 6.11719 0.898438 6.0625C0.984375 6 1.07812 5.94531 1.17969 5.89844C1.27344 5.84375 1.37109 5.79297 1.47266 5.74609C1.57422 5.69141 1.66016 5.62109 1.73047 5.53516H1.80078C1.91016 5.53516 2.00781 5.51172 2.09375 5.46484C2.1875 5.41797 2.29297 5.39844 2.41016 5.40625C2.44922 5.39062 2.47656 5.33203 2.49219 5.23047L2.53906 5.24219C2.71094 5.24219 2.86328 5.18359 2.99609 5.06641C3.08203 4.58203 3.15234 4.09375 3.20703 3.60156C3.26172 3.10938 3.28906 2.61719 3.28906 2.125C3.28906 2.07812 3.27344 2.03125 3.24219 1.98438C3.22656 1.92188 3.21875 1.86328 3.21875 1.80859V1.63281C3.21875 1.54688 3.22266 1.45703 3.23047 1.36328C3.23828 1.26953 3.25781 1.17578 3.28906 1.08203C3.36719 1.03516 3.44922 1.01172 3.53516 1.01172C3.63672 1.01172 3.73438 1.02734 3.82812 1.05859C3.92969 1.08203 4.02734 1.10156 4.12109 1.11719C4.19141 1.1875 4.24219 1.26562 4.27344 1.35156C4.3125 1.4375 4.33594 1.52734 4.34375 1.62109C4.35156 1.70703 4.35156 1.79688 4.34375 1.89062C4.34375 1.97656 4.34375 2.0625 4.34375 2.14844C4.34375 2.32031 4.36328 2.48828 4.40234 2.65234C4.44141 2.81641 4.46094 2.97656 4.46094 3.13281C4.46094 3.17188 4.44531 3.20312 4.41406 3.22656C4.39062 3.24219 4.37891 3.29297 4.37891 3.37891C4.37891 3.46484 4.38672 3.55469 4.40234 3.64844C4.41797 3.74219 4.42578 3.83594 4.42578 3.92969C4.42578 4.03906 4.41016 4.15234 4.37891 4.26953C4.34766 4.38672 4.32031 4.5 4.29688 4.60938C4.76562 4.57031 5.24609 4.51172 5.73828 4.43359C6.23047 4.35547 6.69922 4.23047 7.14453 4.05859C7.15234 4.04297 7.15625 4.01953 7.15625 3.98828C7.15625 3.94141 7.15234 3.89453 7.14453 3.84766C7.13672 3.80078 7.13281 3.75 7.13281 3.69531C7.13281 3.60156 7.16406 3.52734 7.22656 3.47266C7.1875 3.25391 7.16016 3.03516 7.14453 2.81641C7.12891 2.59766 7.12109 2.37891 7.12109 2.16016V1.49219C7.12109 1.27344 7.11719 1.05469 7.10938 0.835938C7.17188 0.796875 7.23828 0.777344 7.30859 0.777344C7.39453 0.777344 7.47266 0.800781 7.54297 0.847656C7.62109 0.886719 7.71094 0.90625 7.8125 0.90625C7.88281 0.90625 7.94141 0.894531 7.98828 0.871094C8.07422 0.949219 8.13281 1.05078 8.16406 1.17578C8.19531 1.30078 8.22266 1.42969 8.24609 1.5625C8.26953 1.69531 8.29297 1.82812 8.31641 1.96094C8.34766 2.08594 8.40625 2.1875 8.49219 2.26562L8.50391 2.30078C8.50391 2.33203 8.48828 2.35547 8.45703 2.37109C8.42578 2.38672 8.41016 2.41797 8.41016 2.46484V2.51172C8.44141 2.63672 8.46484 2.76562 8.48047 2.89844C8.49609 3.03125 8.50781 3.16797 8.51562 3.30859C8.53125 3.44141 8.55078 3.57422 8.57422 3.70703C8.59766 3.83203 8.64062 3.94922 8.70312 4.05859C8.74219 4.05078 8.79297 4.04688 8.85547 4.04688C9.01172 4.04688 9.13281 4.10156 9.21875 4.21094C9.3125 4.3125 9.39453 4.41797 9.46484 4.52734ZM17.6328 2.54688V2.59375C17.5781 2.60938 17.5508 2.64844 17.5508 2.71094C17.4648 2.75 17.375 2.78125 17.2812 2.80469C17.1875 2.82031 17.0977 2.84766 17.0117 2.88672C16.9258 2.87891 16.8359 2.875 16.7422 2.875C16.6562 2.86719 16.5703 2.86328 16.4844 2.86328C16.25 2.86328 16.0156 2.87109 15.7812 2.88672C15.5469 2.90234 15.3125 2.90234 15.0781 2.88672C14.9688 2.94922 14.8477 3 14.7148 3.03906C14.5898 3.07031 14.4688 3.08594 14.3516 3.08594C14.2578 3.08594 14.1758 3.07422 14.1055 3.05078C13.918 3.14453 13.7109 3.22266 13.4844 3.28516C13.2656 3.34766 13.043 3.41016 12.8164 3.47266C12.5898 3.52734 12.3711 3.59375 12.1602 3.67188C11.957 3.74219 11.7773 3.84375 11.6211 3.97656C11.6055 4.08594 11.5938 4.19531 11.5859 4.30469C11.5781 4.40625 11.5742 4.50781 11.5742 4.60938C11.5742 4.71875 11.5781 4.82031 11.5859 4.91406C11.6016 5.00781 11.6289 5.10156 11.668 5.19531C11.707 5.21094 11.75 5.22266 11.7969 5.23047C11.8516 5.23828 11.8984 5.24219 11.9375 5.24219C11.9766 5.24219 12.0156 5.23828 12.0547 5.23047C12.0938 5.21484 12.1211 5.1875 12.1367 5.14844C12.2539 5.13281 12.3711 5.12891 12.4883 5.13672C12.6055 5.13672 12.7227 5.13672 12.8398 5.13672C12.957 5.13672 13.0703 5.13281 13.1797 5.125C13.2969 5.11719 13.4102 5.09766 13.5195 5.06641C13.6445 5.03516 13.7656 5.01562 13.8828 5.00781C14.0078 5 14.1289 4.99219 14.2461 4.98438C14.3633 4.97656 14.4844 4.96484 14.6094 4.94922C14.7344 4.92578 14.8633 4.88281 14.9961 4.82031C15.0977 4.85938 15.1992 4.87891 15.3008 4.87891C15.4102 4.87891 15.5156 4.88672 15.6172 4.90234C15.6719 4.94141 15.7148 4.98438 15.7461 5.03125C15.7852 5.07812 15.8047 5.13281 15.8047 5.19531C15.8047 5.30469 15.7656 5.41406 15.6875 5.52344C15.6094 5.63281 15.5469 5.73438 15.5 5.82812H15.3711C15.1836 5.82812 15 5.85547 14.8203 5.91016C14.6484 5.95703 14.4727 6.01562 14.293 6.08594C14.1211 6.14844 13.9453 6.20703 13.7656 6.26172C13.5938 6.30859 13.4141 6.33203 13.2266 6.33203C13.1953 6.33203 13.1758 6.35156 13.168 6.39062C13.168 6.42188 13.1602 6.44531 13.1445 6.46094C13.1055 6.45312 13.0469 6.44922 12.9688 6.44922C12.7891 6.44922 12.6172 6.46875 12.4531 6.50781C12.2891 6.54688 12.1211 6.56641 11.9492 6.56641C11.9023 6.56641 11.8555 6.56641 11.8086 6.56641C11.7617 6.55859 11.7148 6.55078 11.668 6.54297C11.6289 6.60547 11.5781 6.64844 11.5156 6.67188C11.4531 6.6875 11.3945 6.71875 11.3398 6.76562C11.3164 6.83594 11.3008 6.92188 11.293 7.02344C11.293 7.125 11.2891 7.23047 11.2812 7.33984C11.2812 7.44141 11.2734 7.53906 11.2578 7.63281C11.2422 7.72656 11.2109 7.80078 11.1641 7.85547C11.1719 7.89453 11.2031 7.91016 11.2578 7.90234C11.3125 7.88672 11.3398 7.91016 11.3398 7.97266C11.3398 8.04297 11.332 8.11719 11.3164 8.19531C11.3008 8.27344 11.293 8.35156 11.293 8.42969C11.293 8.57812 11.3086 8.74219 11.3398 8.92188C11.3789 9.09375 11.4336 9.25391 11.5039 9.40234C11.582 9.55078 11.6836 9.67578 11.8086 9.77734C11.9336 9.87109 12.0898 9.91797 12.2773 9.91797C12.4023 9.91797 12.5195 9.89453 12.6289 9.84766C12.7383 9.80078 12.8281 9.72266 12.8984 9.61328L12.957 9.60156C12.9883 9.60156 13.0156 9.60547 13.0391 9.61328C13.0703 9.62109 13.1016 9.625 13.1328 9.625C13.1797 9.625 13.2383 9.59766 13.3086 9.54297C13.3867 9.48047 13.4688 9.41016 13.5547 9.33203C13.6484 9.25391 13.7422 9.17969 13.8359 9.10938C13.9297 9.03125 14.0195 8.97656 14.1055 8.94531C14.1602 8.83594 14.2109 8.72656 14.2578 8.61719C14.3125 8.50781 14.3906 8.42188 14.4922 8.35938V8.01953C14.5703 7.93359 14.6523 7.85547 14.7383 7.78516C14.832 7.71484 14.9023 7.625 14.9492 7.51562C14.9883 7.53125 15.0234 7.54297 15.0547 7.55078C15.0938 7.55859 15.1328 7.5625 15.1719 7.5625C15.2109 7.5625 15.25 7.55859 15.2891 7.55078C15.3359 7.54297 15.3789 7.53125 15.418 7.51562C15.4805 7.60156 15.5273 7.69922 15.5586 7.80859C15.5977 7.91016 15.6445 8.00781 15.6992 8.10156C15.6289 8.24219 15.5469 8.41016 15.4531 8.60547C15.3594 8.80078 15.2578 8.99609 15.1484 9.19141C15.0391 9.38672 14.9219 9.57422 14.7969 9.75391C14.6797 9.92578 14.5625 10.0586 14.4453 10.1523C14.4219 10.1758 14.3711 10.2031 14.293 10.2344C14.207 10.2969 14.1289 10.3555 14.0586 10.4102C13.9883 10.4727 13.9219 10.543 13.8594 10.6211C13.6328 10.6914 13.4141 10.7852 13.2031 10.9023C13 11.0195 12.7969 11.1328 12.5938 11.2422C12.5 11.2188 12.3984 11.207 12.2891 11.207C12.1953 11.207 12.1016 11.2109 12.0078 11.2188C11.9141 11.2344 11.8125 11.2422 11.7031 11.2422C11.6719 11.2031 11.625 11.1758 11.5625 11.1602C11.5078 11.1523 11.4883 11.1133 11.5039 11.043C11.2383 11.0273 11.0234 10.9531 10.8594 10.8203C10.6953 10.6953 10.5547 10.5391 10.4375 10.3516C10.3281 10.1641 10.2383 9.96094 10.168 9.74219C10.0977 9.52344 10.0234 9.3125 9.94531 9.10938V9.07422C9.94531 9.03516 9.96094 9.01172 9.99219 9.00391C10.0234 8.99609 10.0391 8.97266 10.0391 8.93359C10.0391 8.91797 10.0352 8.90625 10.0273 8.89844C10.0039 8.8125 9.98438 8.73828 9.96875 8.67578C9.95312 8.61328 9.94531 8.53906 9.94531 8.45312C9.94531 8.32812 9.95312 8.20703 9.96875 8.08984C9.98438 7.96484 9.99219 7.83984 9.99219 7.71484C9.99219 7.58984 9.97656 7.48047 9.94531 7.38672C9.97656 7.34766 10.0039 7.29688 10.0273 7.23438C10.043 7.16406 10.0547 7.09375 10.0625 7.02344C10.0703 6.95312 10.0742 6.88281 10.0742 6.8125C10.082 6.74219 10.0938 6.67969 10.1094 6.625C10.0781 6.53906 10.0508 6.46484 10.0273 6.40234C10.0039 6.33203 9.99219 6.25 9.99219 6.15625V6.07422C10.0703 5.94141 10.1367 5.80469 10.1914 5.66406C10.2461 5.52344 10.3047 5.37891 10.3672 5.23047V5.19531C10.3672 4.96875 10.3594 4.74219 10.3438 4.51562C10.3281 4.28906 10.3203 4.0625 10.3203 3.83594V3.61328C10.3203 3.53516 10.3242 3.46094 10.332 3.39062C10.3945 3.35938 10.4414 3.31641 10.4727 3.26172C10.5039 3.20703 10.5508 3.16406 10.6133 3.13281H11L11.0703 3.01562C11.0938 2.97656 11.1094 2.93359 11.1172 2.88672C11.2031 2.86328 11.2852 2.83203 11.3633 2.79297C11.4492 2.74609 11.5273 2.69922 11.5977 2.65234C11.707 2.58984 11.8047 2.53516 11.8906 2.48828C11.9844 2.43359 12.0742 2.39062 12.1602 2.35938C12.2539 2.32031 12.3516 2.28906 12.4531 2.26562C12.5547 2.24219 12.6719 2.22266 12.8047 2.20703C12.8672 2.20703 12.9062 2.19531 12.9219 2.17188C12.9453 2.14844 12.9766 2.12109 13.0156 2.08984C13.1094 2.10547 13.2031 2.12109 13.2969 2.13672C13.3906 2.14453 13.4844 2.14844 13.5781 2.14844C13.7656 2.14844 13.9414 2.11328 14.1055 2.04297C14.3398 2.04297 14.5703 2.03906 14.7969 2.03125C15.0312 2.02344 15.2656 2.01953 15.5 2.01953C15.7031 2.01953 15.9062 2.02734 16.1094 2.04297C16.3125 2.05859 16.5117 2.08594 16.707 2.125C16.7773 2.10156 16.8555 2.08984 16.9414 2.08984C17.0352 2.08984 17.1289 2.10156 17.2227 2.125C17.3242 2.14062 17.4219 2.14062 17.5156 2.125C17.5234 2.21094 17.543 2.28516 17.5742 2.34766C17.6133 2.40234 17.6328 2.46875 17.6328 2.54688ZM23.457 6.98828C23.457 7.07422 23.4258 7.14062 23.3633 7.1875C23.3008 7.22656 23.2695 7.28125 23.2695 7.35156C23.2695 7.38281 23.2852 7.42188 23.3164 7.46875C23.207 7.46875 23.1328 7.50391 23.0938 7.57422C23.0547 7.64453 23.0156 7.72266 22.9766 7.80859H22.8242C22.7852 7.80859 22.7539 7.81641 22.7305 7.83203C22.707 7.84766 22.6836 7.87109 22.6602 7.90234C22.6445 7.92578 22.6211 7.96484 22.5898 8.01953C22.4414 8.05078 22.2969 8.10156 22.1562 8.17188C22.0234 8.23438 21.8906 8.30469 21.7578 8.38281C21.6328 8.45312 21.5039 8.52734 21.3711 8.60547C21.2383 8.67578 21.1016 8.73438 20.9609 8.78125C20.8906 8.89844 20.7891 8.99219 20.6562 9.0625H20.6211C20.582 9.07031 20.5469 9.06641 20.5156 9.05078C20.4922 9.02734 20.4609 9.01562 20.4219 9.01562C20.3984 9.01562 20.3828 9.01953 20.375 9.02734C20.1406 9.18359 19.8789 9.26172 19.5898 9.26172C19.5117 9.26172 19.4375 9.25781 19.3672 9.25C19.2969 9.23438 19.2227 9.22656 19.1445 9.22656C19.1211 9.22656 19.1055 9.23438 19.0977 9.25L19.0742 9.29688C19.0664 9.3125 19.0547 9.32812 19.0391 9.34375C19.0312 9.35938 19.0039 9.36719 18.957 9.36719C18.8711 9.36719 18.7852 9.35547 18.6992 9.33203C18.6133 9.30859 18.5234 9.30469 18.4297 9.32031C18.25 9.21875 18.1094 9.12109 18.0078 9.02734C17.9062 8.93359 17.8125 8.79297 17.7266 8.60547C17.6875 8.51953 17.6328 8.4375 17.5625 8.35938C17.5 8.28125 17.4531 8.19531 17.4219 8.10156C17.4141 8.07031 17.4023 8.01562 17.3867 7.9375C17.3711 7.85156 17.3555 7.76172 17.3398 7.66797C17.3242 7.57422 17.3086 7.48438 17.293 7.39844C17.2852 7.3125 17.2812 7.25391 17.2812 7.22266C17.2812 7.12891 17.2852 7.03906 17.293 6.95312C17.3086 6.85938 17.3242 6.76562 17.3398 6.67188C17.3867 6.375 17.418 6.07812 17.4336 5.78125C17.457 5.47656 17.5234 5.18359 17.6328 4.90234C17.6172 4.81641 17.6094 4.73438 17.6094 4.65625V4.39844C17.6094 4.25 17.5898 4.125 17.5508 4.02344C17.6133 3.92188 17.6445 3.80859 17.6445 3.68359C17.6445 3.54297 17.5859 3.46094 17.4688 3.4375V3.40234C17.4688 3.23828 17.4141 3.10938 17.3047 3.01562C17.3047 2.74219 17.3711 2.53906 17.5039 2.40625C17.6445 2.26562 17.8281 2.14453 18.0547 2.04297C18.0859 1.99609 18.0977 1.95703 18.0898 1.92578C18.1445 1.94141 18.1953 1.95703 18.2422 1.97266C18.2891 1.98828 18.3359 1.99609 18.3828 1.99609C18.4609 1.99609 18.5312 1.98438 18.5938 1.96094C18.6172 2.05469 18.6758 2.11328 18.7695 2.13672C18.8711 2.15234 18.9531 2.17578 19.0156 2.20703V2.35938C19.0156 2.60156 19.0742 2.83203 19.1914 3.05078C19.1602 3.11328 19.1406 3.17969 19.1328 3.25C19.125 3.32031 19.1211 3.38672 19.1211 3.44922C19.1211 3.54297 19.125 3.63672 19.1328 3.73047C19.1406 3.82422 19.1445 3.91406 19.1445 4C19.1445 4.09375 19.1328 4.1875 19.1094 4.28125C19.0938 4.375 19.0508 4.45703 18.9805 4.52734C18.9727 4.62891 18.9648 4.74609 18.957 4.87891C18.957 5.00391 18.9492 5.13281 18.9336 5.26562C18.9258 5.39844 18.9062 5.52734 18.875 5.65234C18.8438 5.77734 18.7969 5.87891 18.7344 5.95703C18.7266 6.07422 18.7188 6.19531 18.7109 6.32031C18.7109 6.4375 18.7109 6.55078 18.7109 6.66016C18.7109 6.83203 18.7188 7.03516 18.7344 7.26953C18.7578 7.50391 18.8125 7.69922 18.8984 7.85547C18.9375 7.91797 19.0117 7.96484 19.1211 7.99609C19.2383 8.02734 19.332 8.04297 19.4023 8.04297C19.4883 8.04297 19.5742 8.03125 19.6602 8.00781C19.7539 7.97656 19.8203 7.92578 19.8594 7.85547C19.9062 7.86328 19.9375 7.88672 19.9531 7.92578C19.9688 7.96484 19.9961 7.99609 20.0352 8.01953C20.4805 7.83203 20.9258 7.65234 21.3711 7.48047C21.8164 7.30859 22.2539 7.10938 22.6836 6.88281C22.7461 6.91406 22.8125 6.92969 22.8828 6.92969C22.9609 6.92969 23.0391 6.92188 23.1172 6.90625C23.1953 6.89062 23.2734 6.88281 23.3516 6.88281H23.4336C23.4492 6.92969 23.457 6.96484 23.457 6.98828ZM29.7617 6.98828C29.7617 7.07422 29.7305 7.14062 29.668 7.1875C29.6055 7.22656 29.5742 7.28125 29.5742 7.35156C29.5742 7.38281 29.5898 7.42188 29.6211 7.46875C29.5117 7.46875 29.4375 7.50391 29.3984 7.57422C29.3594 7.64453 29.3203 7.72266 29.2812 7.80859H29.1289C29.0898 7.80859 29.0586 7.81641 29.0352 7.83203C29.0117 7.84766 28.9883 7.87109 28.9648 7.90234C28.9492 7.92578 28.9258 7.96484 28.8945 8.01953C28.7461 8.05078 28.6016 8.10156 28.4609 8.17188C28.3281 8.23438 28.1953 8.30469 28.0625 8.38281C27.9375 8.45312 27.8086 8.52734 27.6758 8.60547C27.543 8.67578 27.4062 8.73438 27.2656 8.78125C27.1953 8.89844 27.0938 8.99219 26.9609 9.0625H26.9258C26.8867 9.07031 26.8516 9.06641 26.8203 9.05078C26.7969 9.02734 26.7656 9.01562 26.7266 9.01562C26.7031 9.01562 26.6875 9.01953 26.6797 9.02734C26.4453 9.18359 26.1836 9.26172 25.8945 9.26172C25.8164 9.26172 25.7422 9.25781 25.6719 9.25C25.6016 9.23438 25.5273 9.22656 25.4492 9.22656C25.4258 9.22656 25.4102 9.23438 25.4023 9.25L25.3789 9.29688C25.3711 9.3125 25.3594 9.32812 25.3438 9.34375C25.3359 9.35938 25.3086 9.36719 25.2617 9.36719C25.1758 9.36719 25.0898 9.35547 25.0039 9.33203C24.918 9.30859 24.8281 9.30469 24.7344 9.32031C24.5547 9.21875 24.4141 9.12109 24.3125 9.02734C24.2109 8.93359 24.1172 8.79297 24.0312 8.60547C23.9922 8.51953 23.9375 8.4375 23.8672 8.35938C23.8047 8.28125 23.7578 8.19531 23.7266 8.10156C23.7188 8.07031 23.707 8.01562 23.6914 7.9375C23.6758 7.85156 23.6602 7.76172 23.6445 7.66797C23.6289 7.57422 23.6133 7.48438 23.5977 7.39844C23.5898 7.3125 23.5859 7.25391 23.5859 7.22266C23.5859 7.12891 23.5898 7.03906 23.5977 6.95312C23.6133 6.85938 23.6289 6.76562 23.6445 6.67188C23.6914 6.375 23.7227 6.07812 23.7383 5.78125C23.7617 5.47656 23.8281 5.18359 23.9375 4.90234C23.9219 4.81641 23.9141 4.73438 23.9141 4.65625V4.39844C23.9141 4.25 23.8945 4.125 23.8555 4.02344C23.918 3.92188 23.9492 3.80859 23.9492 3.68359C23.9492 3.54297 23.8906 3.46094 23.7734 3.4375V3.40234C23.7734 3.23828 23.7188 3.10938 23.6094 3.01562C23.6094 2.74219 23.6758 2.53906 23.8086 2.40625C23.9492 2.26562 24.1328 2.14453 24.3594 2.04297C24.3906 1.99609 24.4023 1.95703 24.3945 1.92578C24.4492 1.94141 24.5 1.95703 24.5469 1.97266C24.5938 1.98828 24.6406 1.99609 24.6875 1.99609C24.7656 1.99609 24.8359 1.98438 24.8984 1.96094C24.9219 2.05469 24.9805 2.11328 25.0742 2.13672C25.1758 2.15234 25.2578 2.17578 25.3203 2.20703V2.35938C25.3203 2.60156 25.3789 2.83203 25.4961 3.05078C25.4648 3.11328 25.4453 3.17969 25.4375 3.25C25.4297 3.32031 25.4258 3.38672 25.4258 3.44922C25.4258 3.54297 25.4297 3.63672 25.4375 3.73047C25.4453 3.82422 25.4492 3.91406 25.4492 4C25.4492 4.09375 25.4375 4.1875 25.4141 4.28125C25.3984 4.375 25.3555 4.45703 25.2852 4.52734C25.2773 4.62891 25.2695 4.74609 25.2617 4.87891C25.2617 5.00391 25.2539 5.13281 25.2383 5.26562C25.2305 5.39844 25.2109 5.52734 25.1797 5.65234C25.1484 5.77734 25.1016 5.87891 25.0391 5.95703C25.0312 6.07422 25.0234 6.19531 25.0156 6.32031C25.0156 6.4375 25.0156 6.55078 25.0156 6.66016C25.0156 6.83203 25.0234 7.03516 25.0391 7.26953C25.0625 7.50391 25.1172 7.69922 25.2031 7.85547C25.2422 7.91797 25.3164 7.96484 25.4258 7.99609C25.543 8.02734 25.6367 8.04297 25.707 8.04297C25.793 8.04297 25.8789 8.03125 25.9648 8.00781C26.0586 7.97656 26.125 7.92578 26.1641 7.85547C26.2109 7.86328 26.2422 7.88672 26.2578 7.92578C26.2734 7.96484 26.3008 7.99609 26.3398 8.01953C26.7852 7.83203 27.2305 7.65234 27.6758 7.48047C28.1211 7.30859 28.5586 7.10938 28.9883 6.88281C29.0508 6.91406 29.1172 6.92969 29.1875 6.92969C29.2656 6.92969 29.3438 6.92188 29.4219 6.90625C29.5 6.89062 29.5781 6.88281 29.6562 6.88281H29.7383C29.7539 6.92969 29.7617 6.96484 29.7617 6.98828ZM37.0977 3.21484C37.0508 3.28516 37.0234 3.36328 37.0156 3.44922C37.0078 3.53516 37.0039 3.61328 37.0039 3.68359C37.0039 3.77734 37.0039 3.87109 37.0039 3.96484C37.0117 4.05078 37.0156 4.13672 37.0156 4.22266V4.39844C37 4.45312 36.9766 4.50781 36.9453 4.5625C36.9141 4.61719 36.8906 4.67188 36.875 4.72656C36.7656 5.01562 36.7109 5.30469 36.7109 5.59375V5.61719C36.6719 5.71094 36.6328 5.79688 36.5938 5.875C36.5625 5.95312 36.5312 6.03125 36.5 6.10938C36.4688 6.17969 36.4453 6.25781 36.4297 6.34375C36.4141 6.42188 36.4102 6.51562 36.418 6.625C36.3086 6.89844 36.1641 7.14844 35.9844 7.375C35.8047 7.59375 35.6289 7.82031 35.457 8.05469C35.293 8.11719 35.1406 8.19922 35 8.30078C34.8672 8.40234 34.7383 8.51562 34.6133 8.64062C34.3711 8.71875 34.1328 8.80859 33.8984 8.91016C33.6641 9.01172 33.4531 9.14844 33.2656 9.32031C33.1172 9.33594 32.9688 9.35938 32.8203 9.39062C32.6719 9.42188 32.5273 9.46875 32.3867 9.53125H32.2461C32.1758 9.53125 32.125 9.51562 32.0938 9.48438C31.9922 9.53906 31.8867 9.57812 31.7773 9.60156C31.668 9.61719 31.5586 9.625 31.4492 9.625C31.3086 9.625 31.168 9.61719 31.0273 9.60156C30.8945 9.57812 30.7578 9.55469 30.6172 9.53125C30.5391 9.42188 30.4297 9.33984 30.2891 9.28516C30.1484 9.22266 30.0234 9.16406 29.9141 9.10938C29.6875 8.79688 29.5234 8.49609 29.4219 8.20703C29.3203 7.91016 29.2148 7.57812 29.1055 7.21094C29.1211 7.10156 29.1484 6.99609 29.1875 6.89453C29.2266 6.78516 29.2422 6.66797 29.2344 6.54297C29.375 6.13672 29.5586 5.76953 29.7852 5.44141C30.0195 5.10547 30.2852 4.78516 30.582 4.48047C30.582 4.43359 30.5898 4.39453 30.6055 4.36328C30.6289 4.33203 30.6328 4.28516 30.6172 4.22266C30.625 4.23047 30.6406 4.23438 30.6641 4.23438C30.7266 4.23438 30.7656 4.21875 30.7812 4.1875C30.7969 4.14844 30.8008 4.10547 30.793 4.05859C31.0742 3.87891 31.3281 3.67188 31.5547 3.4375C31.7891 3.20312 32.0547 3.00781 32.3516 2.85156C32.375 2.78125 32.4141 2.72266 32.4688 2.67578C32.5234 2.62891 32.5664 2.57422 32.5977 2.51172C32.8477 2.44141 33.0742 2.33594 33.2773 2.19531C33.4805 2.05469 33.6953 1.92969 33.9219 1.82031C34.0469 1.75 34.1641 1.70312 34.2734 1.67969C34.3906 1.64844 34.5156 1.61719 34.6484 1.58594C34.6953 1.57031 34.7383 1.55859 34.7773 1.55078C34.8164 1.54297 34.8594 1.53906 34.9062 1.53906C35.0469 1.53906 35.1836 1.56641 35.3164 1.62109C35.4492 1.66797 35.5859 1.69141 35.7266 1.69141C35.7656 1.69141 35.7969 1.69141 35.8203 1.69141C35.8516 1.68359 35.8828 1.67578 35.9141 1.66797C36.0469 1.83203 36.2148 1.95703 36.418 2.04297C36.4648 2.16016 36.5195 2.26172 36.582 2.34766C36.6523 2.43359 36.7227 2.51953 36.793 2.60547C36.8633 2.68359 36.9258 2.77344 36.9805 2.875C37.043 2.96875 37.082 3.08203 37.0977 3.21484ZM35.9258 3.82422C35.9258 3.78516 35.9219 3.75 35.9141 3.71875C35.8359 3.69531 35.7617 3.66406 35.6914 3.625C35.6211 3.58594 35.543 3.56641 35.457 3.56641C35.4023 3.56641 35.3477 3.57812 35.293 3.60156C35.2852 3.54688 35.2617 3.50781 35.2227 3.48438C35.1914 3.46094 35.1523 3.44141 35.1055 3.42578C35.0664 3.40234 35.0234 3.38672 34.9766 3.37891C34.9375 3.36328 34.9023 3.33984 34.8711 3.30859C34.8477 3.24609 34.8203 3.18359 34.7891 3.12109C34.7656 3.05078 34.7188 3 34.6484 2.96875C34.5781 3.03906 34.4961 3.09766 34.4023 3.14453C34.3086 3.18359 34.2109 3.22266 34.1094 3.26172C34.0156 3.30078 33.9219 3.34766 33.8281 3.40234C33.7422 3.45703 33.668 3.52344 33.6055 3.60156H33.3945C33.3477 3.6875 33.2812 3.75391 33.1953 3.80078C33.1094 3.83984 33.0352 3.89844 32.9727 3.97656C32.8477 4.03906 32.7305 4.11719 32.6211 4.21094C32.5195 4.29688 32.418 4.39062 32.3164 4.49219C32.2148 4.58594 32.1133 4.68359 32.0117 4.78516C31.918 4.88672 31.8164 4.98047 31.707 5.06641C31.6055 5.28516 31.4922 5.47656 31.3672 5.64062C31.25 5.79688 31.1367 5.95703 31.0273 6.12109C30.9258 6.28516 30.8359 6.46484 30.7578 6.66016C30.6875 6.84766 30.6523 7.08203 30.6523 7.36328V7.48047C30.6523 7.51953 30.6562 7.55859 30.6641 7.59766C30.7656 7.70703 30.8477 7.82422 30.9102 7.94922C30.9805 8.07422 31.0938 8.16406 31.25 8.21875C31.4062 8.28125 31.5703 8.30859 31.7422 8.30078C31.9219 8.29297 32.0938 8.3125 32.2578 8.35938C32.6328 8.28906 32.9922 8.17578 33.3359 8.01953C33.6875 7.85547 34.0195 7.66016 34.332 7.43359C34.3789 7.39453 34.4336 7.35547 34.4961 7.31641C34.5586 7.26953 34.6094 7.22266 34.6484 7.17578C34.6875 7.13672 34.7188 7.09375 34.7422 7.04688C34.7734 7 34.8047 6.95703 34.8359 6.91797C34.8984 6.81641 34.9688 6.71484 35.0469 6.61328C35.125 6.51172 35.207 6.41797 35.293 6.33203C35.332 6.16016 35.3828 5.99609 35.4453 5.83984C35.5078 5.67578 35.5703 5.51562 35.6328 5.35938C35.6953 5.20312 35.7461 5.04297 35.7852 4.87891C35.832 4.71484 35.8555 4.54297 35.8555 4.36328C35.8555 4.32422 35.8516 4.28125 35.8438 4.23438C35.8438 4.1875 35.8398 4.14453 35.832 4.10547C35.8945 4.01953 35.9258 3.92578 35.9258 3.82422Z" fill="white"/>
</svg>
